# xmcd CD database file
#
# Track frame offsets:
#	150
#	16537
#	37672
#	59225
#	82912
#	102392
#	135512
#	158595
#	183630
#	200532
#	231322
#	259145
#
# Disc length: 3817 seconds
#
# Revision: 0
# Processed by: cddbd v1.4PL0 Copyright (c) Steve Scherf et al.
# Submitted via: CDex 1.40Release
#
DISCID=960ee70c
DTITLE=Big Jack Johnson and The Oilers - Roots Stew
DYEAR=1999
DGENRE=Blues
TTITLE0=Jump For Joy
TTITLE1=Hummingbird
TTITLE2=Since I Met You Babe
TTITLE3=Cherry Tree
TTITLE4=You're Gonna Make Me Cry
TTITLE5=Late Night With Jack
TTITLE6=Too Many Rats
TTITLE7=Going Too Far
TTITLE8=Beale Street
TTITLE9=I'm Trying To Do All I Can
TTITLE10=I Wanna Go Home
TTITLE11=So Long Frank Frost
EXTD=YEAR: 1999 ID3G: 0
EXTT0=
EXTT1=
EXTT2=
EXTT3=
EXTT4=
EXTT5=
EXTT6=
EXTT7=
EXTT8=
EXTT9=
EXTT10=
EXTT11=
PLAYORDER=
